<svg width="512" height="512" viewBox="0 0 512 512" fill="none" xmlns="http://www.w3.org/2000/svg">
<path d="M368 144H352V168H368V144Z" fill="#D8541C"/>
<path d="M368 88H352V128H368V88Z" fill="#D8541C"/>
<path d="M360 152C368.837 152 376 144.837 376 136C376 127.163 368.837 120 360 120C351.163 120 344 127.163 344 136C344 144.837 351.163 152 360 152Z" fill="#F5DD90"/>
<path d="M272 328L256 376L240 328V184C240 175.2 247.2 168 256 168C264.8 168 272 175.2 272 184V328Z" fill="#274C77"/>
<path d="M272 200H240V184C240 175.2 247.2 168 256 168C260.4 168 264.4 169.76 267.28 172.72C270.24 175.6 272 179.6 272 184V200Z" fill="#F76C5E"/>
<path d="M272 328H240L256 376L272 328Z" fill="#F76C5E"/>
<path d="M480 488H256V472H480C484.4 472 488 468.4 488 464C488 459.6 484.4 456 480 456H32C18.8 456 8 445.2 8 432C8 418.8 18.8 408 32 408H248V392H264V408C264 416.8 256.8 424 248 424H32C27.6 424 24 427.6 24 432C24 436.4 27.6 440 32 440H480C493.2 440 504 450.8 504 464C504 477.2 493.2 488 480 488Z" fill="#D8541C"/>
<path d="M240 472H224V488H240V472Z" fill="#F76C5E"/>
<path d="M208 472H192V488H208V472Z" fill="#F76C5E"/>
<path d="M176 472H160V488H176V472Z" fill="#F76C5E"/>
<path d="M144 472H128V488H144V472Z" fill="#F76C5E"/>
<path d="M112 472H96V488H112V472Z" fill="#F76C5E"/>
<path d="M80 472H64V488H80V472Z" fill="#F76C5E"/>
<path d="M48 472H32V488H48V472Z" fill="#F76C5E"/>
<path d="M192 102.96V120C192 137.68 206.32 152 224 152H288C305.68 152 320 137.68 320 120V102.96L256 120L192 102.96Z" fill="#D8541C"/>
<path d="M256 120L136 88L256 24L376 88L256 120Z" fill="#274C77"/>
</svg>
