<svg width="2726" height="800" viewBox="0 0 2726 800" fill="none" xmlns="http://www.w3.org/2000/svg">
<path d="M967.2 546.2C945.867 546.2 926.133 542.733 908 535.8C890.133 528.6 874.533 518.6 861.2 505.8C848.133 492.733 837.867 477.533 830.4 460.2C822.933 442.867 819.2 423.8 819.2 403C819.2 382.2 822.933 363.133 830.4 345.8C837.867 328.467 848.267 313.4 861.6 300.6C874.933 287.533 890.533 277.533 908.4 270.6C926.533 263.4 946.267 259.8 967.6 259.8C989.2 259.8 1009.07 263.533 1027.2 271C1045.6 278.2 1061.2 289 1074 303.4L1048 328.6C1037.33 317.4 1025.33 309.133 1012 303.8C998.667 298.2 984.4 295.4 969.2 295.4C953.467 295.4 938.8 298.067 925.2 303.4C911.867 308.733 900.267 316.2 890.4 325.8C880.533 335.4 872.8 346.867 867.2 360.2C861.867 373.267 859.2 387.533 859.2 403C859.2 418.467 861.867 432.867 867.2 446.2C872.8 459.267 880.533 470.6 890.4 480.2C900.267 489.8 911.867 497.267 925.2 502.6C938.8 507.933 953.467 510.6 969.2 510.6C984.4 510.6 998.667 507.933 1012 502.6C1025.33 497 1037.33 488.467 1048 477L1074 502.2C1061.2 516.6 1045.6 527.533 1027.2 535C1009.07 542.467 989.067 546.2 967.2 546.2ZM1207.28 545.4C1185.94 545.4 1167.01 540.733 1150.48 531.4C1133.94 522.067 1120.88 509.267 1111.28 493C1101.68 476.467 1096.88 457.8 1096.88 437C1096.88 415.933 1101.68 397.267 1111.28 381C1120.88 364.733 1133.94 352.067 1150.48 343C1167.01 333.667 1185.94 329 1207.28 329C1228.34 329 1247.14 333.667 1263.68 343C1280.48 352.067 1293.54 364.733 1302.88 381C1312.48 397 1317.28 415.667 1317.28 437C1317.28 458.067 1312.48 476.733 1302.88 493C1293.54 509.267 1280.48 522.067 1263.68 531.4C1247.14 540.733 1228.34 545.4 1207.28 545.4ZM1207.28 511.8C1220.88 511.8 1233.01 508.733 1243.68 502.6C1254.61 496.467 1263.14 487.8 1269.28 476.6C1275.41 465.133 1278.48 451.933 1278.48 437C1278.48 421.8 1275.41 408.733 1269.28 397.8C1263.14 386.6 1254.61 377.933 1243.68 371.8C1233.01 365.667 1220.88 362.6 1207.28 362.6C1193.68 362.6 1181.54 365.667 1170.88 371.8C1160.21 377.933 1151.68 386.6 1145.28 397.8C1138.88 408.733 1135.68 421.8 1135.68 437C1135.68 451.933 1138.88 465.133 1145.28 476.6C1151.68 487.8 1160.21 496.467 1170.88 502.6C1181.54 508.733 1193.68 511.8 1207.28 511.8ZM1459.58 545.4C1441.45 545.4 1425.45 542.067 1411.58 535.4C1397.98 528.733 1387.32 518.6 1379.58 505C1372.12 491.133 1368.38 473.8 1368.38 453V331H1406.78V448.6C1406.78 469.4 1411.72 485 1421.58 495.4C1431.72 505.8 1445.85 511 1463.98 511C1477.32 511 1488.92 508.333 1498.78 503C1508.65 497.4 1516.25 489.4 1521.58 479C1526.92 468.333 1529.58 455.533 1529.58 440.6V331H1567.98V543H1531.58V485.8L1537.58 501C1530.65 515.133 1520.25 526.067 1506.38 533.8C1492.52 541.533 1476.92 545.4 1459.58 545.4ZM1641.09 543V331H1677.89V388.6L1674.29 374.2C1680.15 359.533 1690.02 348.333 1703.89 340.6C1717.75 332.867 1734.82 329 1755.09 329V366.2C1753.49 365.933 1751.89 365.8 1750.29 365.8C1748.95 365.8 1747.62 365.8 1746.29 365.8C1725.75 365.8 1709.49 371.933 1697.49 384.2C1685.49 396.467 1679.49 414.2 1679.49 437.4V543H1641.09ZM1865.56 545.4C1847.96 545.4 1831.16 543 1815.16 538.2C1799.43 533.4 1787.03 527.533 1777.96 520.6L1793.96 490.2C1803.03 496.333 1814.23 501.533 1827.56 505.8C1840.89 510.067 1854.49 512.2 1868.36 512.2C1886.23 512.2 1899.03 509.667 1906.76 504.6C1914.76 499.533 1918.76 492.467 1918.76 483.4C1918.76 476.733 1916.36 471.533 1911.56 467.8C1906.76 464.067 1900.36 461.267 1892.36 459.4C1884.63 457.533 1875.96 455.933 1866.36 454.6C1856.76 453 1847.16 451.133 1837.56 449C1827.96 446.6 1819.16 443.4 1811.16 439.4C1803.16 435.133 1796.76 429.4 1791.96 422.2C1787.16 414.733 1784.76 404.867 1784.76 392.6C1784.76 379.8 1788.36 368.6 1795.56 359C1802.76 349.4 1812.89 342.067 1825.96 337C1839.29 331.667 1855.03 329 1873.16 329C1887.03 329 1901.03 330.733 1915.16 334.2C1929.56 337.4 1941.29 342.067 1950.36 348.2L1933.96 378.6C1924.36 372.2 1914.36 367.8 1903.96 365.4C1893.56 363 1883.16 361.8 1872.76 361.8C1855.96 361.8 1843.43 364.6 1835.16 370.2C1826.89 375.533 1822.76 382.467 1822.76 391C1822.76 398.2 1825.16 403.8 1829.96 407.8C1835.03 411.533 1841.43 414.467 1849.16 416.6C1857.16 418.733 1865.96 420.6 1875.56 422.2C1885.16 423.533 1894.76 425.4 1904.36 427.8C1913.96 429.933 1922.63 433 1930.36 437C1938.36 441 1944.76 446.6 1949.56 453.8C1954.63 461 1957.16 470.6 1957.16 482.6C1957.16 495.4 1953.43 506.467 1945.96 515.8C1938.49 525.133 1927.96 532.467 1914.36 537.8C1900.76 542.867 1884.49 545.4 1865.56 545.4ZM2099.55 545.4C2076.88 545.4 2056.88 540.733 2039.55 531.4C2022.48 522.067 2009.15 509.267 1999.55 493C1990.22 476.733 1985.55 458.067 1985.55 437C1985.55 415.933 1990.08 397.267 1999.15 381C2008.48 364.733 2021.15 352.067 2037.15 343C2053.42 333.667 2071.68 329 2091.95 329C2112.48 329 2130.62 333.533 2146.35 342.6C2162.08 351.667 2174.35 364.467 2183.15 381C2192.22 397.267 2196.75 416.333 2196.75 438.2C2196.75 439.8 2196.62 441.667 2196.35 443.8C2196.35 445.933 2196.22 447.933 2195.95 449.8H2015.55V422.2H2175.95L2160.35 431.8C2160.62 418.2 2157.82 406.067 2151.95 395.4C2146.08 384.733 2137.95 376.467 2127.55 370.6C2117.42 364.467 2105.55 361.4 2091.95 361.4C2078.62 361.4 2066.75 364.467 2056.35 370.6C2045.95 376.467 2037.82 384.867 2031.95 395.8C2026.08 406.467 2023.15 418.733 2023.15 432.6V439C2023.15 453.133 2026.35 465.8 2032.75 477C2039.42 487.933 2048.62 496.467 2060.35 502.6C2072.08 508.733 2085.55 511.8 2100.75 511.8C2113.28 511.8 2124.62 509.667 2134.75 505.4C2145.15 501.133 2154.22 494.733 2161.95 486.2L2183.15 511C2173.55 522.2 2161.55 530.733 2147.15 536.6C2133.02 542.467 2117.15 545.4 2099.55 545.4ZM2250.07 543V331H2286.87V388.6L2283.27 374.2C2289.14 359.533 2299.01 348.333 2312.87 340.6C2326.74 332.867 2343.81 329 2364.07 329V366.2C2362.47 365.933 2360.87 365.8 2359.27 365.8C2357.94 365.8 2356.61 365.8 2355.27 365.8C2334.74 365.8 2318.47 371.933 2306.47 384.2C2294.47 396.467 2288.47 414.2 2288.47 437.4V543H2250.07ZM2411.4 543V331H2449.8V543H2411.4ZM2430.6 290.2C2423.13 290.2 2416.87 287.8 2411.8 283C2407 278.2 2404.6 272.333 2404.6 265.4C2404.6 258.2 2407 252.2 2411.8 247.4C2416.87 242.6 2423.13 240.2 2430.6 240.2C2438.07 240.2 2444.2 242.6 2449 247.4C2454.07 251.933 2456.6 257.667 2456.6 264.6C2456.6 271.8 2454.2 277.933 2449.4 283C2444.6 287.8 2438.33 290.2 2430.6 290.2ZM2654.72 543V498.2L2652.72 489.8V413.4C2652.72 397.133 2647.92 384.6 2638.32 375.8C2628.99 366.733 2614.85 362.2 2595.92 362.2C2583.39 362.2 2571.12 364.333 2559.12 368.6C2547.12 372.6 2536.99 378.067 2528.72 385L2512.72 356.2C2523.65 347.4 2536.72 340.733 2551.92 336.2C2567.39 331.4 2583.52 329 2600.32 329C2629.39 329 2651.79 336.067 2667.52 350.2C2683.25 364.333 2691.12 385.933 2691.12 415V543H2654.72ZM2585.12 545.4C2569.39 545.4 2555.52 542.733 2543.52 537.4C2531.79 532.067 2522.72 524.733 2516.32 515.4C2509.92 505.8 2506.72 495 2506.72 483C2506.72 471.533 2509.39 461.133 2514.72 451.8C2520.32 442.467 2529.25 435 2541.52 429.4C2554.05 423.8 2570.85 421 2591.92 421H2659.12V448.6H2593.52C2574.32 448.6 2561.39 451.8 2554.72 458.2C2548.05 464.6 2544.72 472.333 2544.72 481.4C2544.72 491.8 2548.85 500.2 2557.12 506.6C2565.39 512.733 2576.85 515.8 2591.52 515.8C2605.92 515.8 2618.45 512.6 2629.12 506.2C2640.05 499.8 2647.92 490.467 2652.72 478.2L2660.32 504.6C2655.25 517.133 2646.32 527.133 2633.52 534.6C2620.72 541.8 2604.59 545.4 2585.12 545.4Z" fill="#D8541C"/>
<path d="M575 225H550V262.5H575V225Z" fill="#D8541C"/>
<path d="M575 137.5H550V200H575V137.5Z" fill="#D8541C"/>
<path d="M562.5 237.5C576.307 237.5 587.5 226.307 587.5 212.5C587.5 198.693 576.307 187.5 562.5 187.5C548.693 187.5 537.5 198.693 537.5 212.5C537.5 226.307 548.693 237.5 562.5 237.5Z" fill="#F5DD90"/>
<path d="M425 512.5L400 587.5L375 512.5V287.5C375 273.75 386.25 262.5 400 262.5C413.75 262.5 425 273.75 425 287.5V512.5Z" fill="#274C77"/>
<path d="M425 312.5H375V287.5C375 273.75 386.25 262.5 400 262.5C406.875 262.5 413.125 265.25 417.625 269.875C422.25 274.375 425 280.625 425 287.5V312.5Z" fill="#F76C5E"/>
<path d="M425 512.5H375L400 587.5L425 512.5Z" fill="#F76C5E"/>
<path d="M750 762.5H400V737.5H750C756.875 737.5 762.5 731.875 762.5 725C762.5 718.125 756.875 712.5 750 712.5H50C29.375 712.5 12.5 695.625 12.5 675C12.5 654.375 29.375 637.5 50 637.5H387.5V612.5H412.5V637.5C412.5 651.25 401.25 662.5 387.5 662.5H50C43.125 662.5 37.5 668.125 37.5 675C37.5 681.875 43.125 687.5 50 687.5H750C770.625 687.5 787.5 704.375 787.5 725C787.5 745.625 770.625 762.5 750 762.5Z" fill="#D8541C"/>
<path d="M375 737.5H350V762.5H375V737.5Z" fill="#F76C5E"/>
<path d="M325 737.5H300V762.5H325V737.5Z" fill="#F76C5E"/>
<path d="M275 737.5H250V762.5H275V737.5Z" fill="#F76C5E"/>
<path d="M225 737.5H200V762.5H225V737.5Z" fill="#F76C5E"/>
<path d="M175 737.5H150V762.5H175V737.5Z" fill="#F76C5E"/>
<path d="M125 737.5H100V762.5H125V737.5Z" fill="#F76C5E"/>
<path d="M75 737.5H50V762.5H75V737.5Z" fill="#F76C5E"/>
<path d="M300 160.875V187.5C300 215.125 322.375 237.5 350 237.5H450C477.625 237.5 500 215.125 500 187.5V160.875L400 187.5L300 160.875Z" fill="#D8541C"/>
<path d="M400 187.5L212.5 137.5L400 37.5L587.5 137.5L400 187.5Z" fill="#274C77"/>
</svg>
